<?xml version="1.0" encoding="UTF-8" standalone="no"?><!DOCTYPE svg PUBLIC "-//W3C//DTD SVG 1.1//EN" "http://www.w3.org/Graphics/SVG/1.1/DTD/svg11.dtd"><svg width="100%" height="100%" viewBox="0 0 175 217" version="1.1" xmlns="http://www.w3.org/2000/svg" xmlnsXlink="http://www.w3.org/1999/xlink" xmlSpace="preserve" xmlnsSerif="http://www.serif.com/" style="fill-rule:evenodd;clip-rule:evenodd;stroke-linejoin:round;stroke-miterlimit:1.41421;"><path d="M37.588,92.215c-6.677,-11.147 -13.461,-21.058 -28.014,-14.721c-9.614,4.186 -11.835,10.962 -5.477,22.069c20.373,35.59 23.615,47.123 31.618,61.848c5.665,10.424 14.809,22.766 24.006,31.828l0.14,0.142l0,18.373c0,2.425 1.965,4.39 4.39,4.39l79.012,0c2.425,0 4.39,-1.965 4.39,-4.39l0,-18.878c11.392,-17.552 13.533,-43.834 13.533,-65.009l12.294,-60.78c1.101,-9.732 -1.133,-17.428 -10.715,-19.434c-8.116,-1.699 -14.238,1.368 -18.321,14.602c-3.865,12.529 -6.109,26.045 -5.446,21.661c0.9,-5.949 11.344,-53.897 10.984,-63.626c-0.314,-8.501 -7.992,-13.479 -14.719,-14.283c-0.687,-0.082 -1.387,-0.104 -2.096,-0.125c-12.329,-0.356 -14.862,10.25 -16.095,17.451c-1.514,8.845 -6.249,74.993 -2.584,3.98c0.845,-16.373 -3.119,-26.523 -15.799,-26.808c-12.07,-0.271 -18.239,10.981 -18.702,24.883c-0.859,25.779 0.399,61.212 0.181,46.269l-2.309,-45.143c0,-9.7 -7.857,-17.559 -17.559,-17.559c-9.681,0 -17.558,7.877 -17.558,17.559l8.567,89.446c-7.6,-12.257 -7.713,-13.716 -13.721,-23.745Zm-23.596,-6.581c10.386,-4.535 13.092,6.009 15.706,9.972c8.259,12.519 19.588,39.6 24.368,39.786c2.423,0.094 5.795,-2.86 5.795,-5.284c0,-3.2 -8.34,-100.947 -8.34,-103.594c0,-4.841 3.939,-8.78 8.779,-8.78c4.849,0 8.779,3.93 8.779,8.78l8.341,86.036c0,2.424 1.965,4.389 4.389,4.389c2.425,0 4.39,-1.965 4.39,-4.389c0,0 0.11,-59.615 2.626,-86.504c0.694,-7.414 0.904,-15.819 9.861,-16.102c7.479,-0.237 7.517,8.534 7.472,16.768c-0.103,19.064 -2.401,55.43 -2.401,85.838c0,2.424 1.965,4.389 4.39,4.389c2.424,0 4.389,-1.965 4.389,-4.389l11.852,-89.109c0.813,-4.897 3.939,-8.769 8.779,-8.779c4.749,-0.01 9.673,1.298 8.678,10.277l-11.75,84.067l0,3.544c0,2.424 1.965,4.389 4.389,4.389c2.425,0 4.39,-1.965 4.39,-4.389l3.747,-14.507c2.68,-10.878 5.107,-22.736 8.827,-33.688c2.531,-7.452 5.664,-9.647 9.455,-8.987c5.697,0.992 6.354,5.319 5.516,10.198l-13.297,59.34c0,19.657 -2.475,47.668 -13.511,64.221c-0.48,0.722 -0.737,1.569 -0.737,2.435l0,15.803l-70.234,0l0,-15.803c0,-1.164 -0.463,-2.28 -1.286,-3.103c-0.929,-1.058 -14.95,-15.964 -24.364,-32.871c-3.926,-7.053 -20.489,-40.739 -31.031,-58.921c-3.522,-6.074 -3.289,-8.71 2.033,-11.033Z" style="fill:#32d7ee;fill-rule:nonzero;stroke:#fff;stroke-width:1px;"/></svg>