<?xml version="1.0" encoding="UTF-8" standalone="no"?><!DOCTYPE svg PUBLIC "-//W3C//DTD SVG 1.1//EN" "http://www.w3.org/Graphics/SVG/1.1/DTD/svg11.dtd"><svg width="100%" height="100%" viewBox="0 0 148 217" version="1.1" xmlns="http://www.w3.org/2000/svg" xmlnsXlink="http://www.w3.org/1999/xlink" xmlSpace="preserve" xmlnsSerif="http://www.serif.com/" style="fill-rule:evenodd;clip-rule:evenodd;stroke-linejoin:round;stroke-miterlimit:1.41421;"><path d="M1.381,128.498c2.833,12.032 7.312,23.6 13.316,34.381c6.007,10.788 13.483,20.688 22.221,29.425l0.146,0.149l0,19.122c0,2.524 2.045,4.569 4.569,4.569l82.237,0c2.523,0 4.568,-2.045 4.568,-4.569l0,-19.649c11.858,-18.268 18.275,-39.685 18.275,-61.724l0,-35.586c0,-10.076 -8.198,-18.275 -18.275,-18.275c-3.76,0 -7.258,1.142 -10.167,3.098c-2.5,-7.117 -9.284,-12.236 -17.245,-12.236c-3.76,0 -7.258,1.143 -10.167,3.099c-2.5,-7.118 -9.284,-12.236 -17.245,-12.236c-3.261,0 -6.389,0.853 -9.138,2.447l0,-41.738c0,-10.096 -8.177,-18.275 -18.275,-18.275c-10.076,0 -18.275,8.199 -18.275,18.275l0,65.781l-12.485,8.323c-11.599,7.733 -17.251,22.046 -14.06,35.619Zm19.13,-28.016l7.415,-4.945l0,31.06c0,2.523 2.046,4.569 4.569,4.569c2.524,0 4.569,-2.046 4.569,-4.569c0,-3.33 0,-105.067 0,-107.822c0,-5.038 4.099,-9.138 9.137,-9.138c5.047,0 9.138,4.091 9.138,9.138l0,89.547c0,2.523 2.045,4.569 4.569,4.569c2.523,0 4.568,-2.046 4.568,-4.569l0,-31.981c0,-5.047 4.091,-9.138 9.138,-9.138c5.038,0 9.137,4.1 9.137,9.138l0,31.981c0,2.523 2.045,4.569 4.569,4.569c2.523,0 4.569,-2.046 4.569,-4.569l0,-22.844c0,-5.038 4.099,-9.137 9.137,-9.137c5.038,0 9.137,4.099 9.137,9.137l0,22.844c0,2.523 2.046,4.569 4.569,4.569c2.524,0 4.569,-2.046 4.569,-4.569l0,-13.706c0,-5.038 4.099,-9.138 9.137,-9.138c5.038,0 9.138,4.1 9.138,9.138l0,35.586c0,20.459 -6.022,40.594 -17.508,57.823c-0.499,0.751 -0.767,1.633 -0.767,2.534l0,16.447l-73.1,0l0,-16.447c0,-1.212 -0.482,-2.374 -1.338,-3.23c-0.967,-1.101 -12.386,-11.299 -22.183,-28.896c-5.592,-10.044 -9.766,-20.819 -12.406,-32.027c-2.32,-9.876 1.794,-20.295 10.237,-25.924Z" style="fill:#32d7ee;fill-rule:nonzero;stroke:#fff;stroke-width:1px;"/></svg>