<?xml version="1.0" encoding="UTF-8" standalone="no"?><!DOCTYPE svg PUBLIC "-//W3C//DTD SVG 1.1//EN" "http://www.w3.org/Graphics/SVG/1.1/DTD/svg11.dtd"><svg width="100%" height="100%" viewBox="0 0 501 295" version="1.1" xmlns="http://www.w3.org/2000/svg" xmlnsXlink="http://www.w3.org/1999/xlink" xmlSpace="preserve" xmlnsSerif="http://www.serif.com/" style="fill-rule:evenodd;clip-rule:evenodd;stroke-linejoin:round;stroke-miterlimit:1.41421;"><g><path d="M148.799,131.434c2.722,11.56 7.025,22.675 12.794,33.033c5.771,10.366 12.954,19.877 21.349,28.272l0.141,0.142l0,18.373c0,2.425 1.965,4.39 4.389,4.39l79.013,0c2.425,0 4.39,-1.965 4.39,-4.39l0,-18.878c11.392,-17.552 17.558,-38.13 17.558,-59.304l0,-34.191c0,-9.681 -7.877,-17.559 -17.558,-17.559c-3.613,0 -6.974,1.098 -9.769,2.977c-2.402,-6.838 -8.92,-11.756 -16.569,-11.756c-3.613,0 -5.666,0.96 -8.461,2.839c-0.044,-4.522 0.53,-20.789 1.634,-48.569c0.65,-16.382 -3.12,-26.523 -15.799,-26.808c-12.07,-0.271 -18.239,10.981 -18.702,24.883c-0.859,25.779 0.399,61.212 0.18,46.269l-2.309,-45.143c0,-9.7 -7.857,-17.559 -17.558,-17.559c-9.681,0 -17.559,7.877 -17.559,17.559l6.158,63.508l-9.813,7.69c-11.144,7.43 -16.575,21.182 -13.509,34.222Zm18.38,-26.917l5.658,-4.751l1.467,29.842c0,2.424 1.965,4.389 4.389,4.389c2.425,0 4.39,-1.965 4.39,-4.389c0,-3.2 -8.34,-100.947 -8.34,-103.594c0,-4.841 3.938,-8.78 8.779,-8.78c4.849,0 8.779,3.93 8.779,8.78l8.34,86.036c0,2.424 1.965,4.389 4.39,4.389c2.424,0 4.389,-1.965 4.389,-4.389c0,0 0.22,-59.374 2.737,-86.263c0.693,-7.414 0.794,-16.06 9.751,-16.343c7.479,-0.237 7.516,8.534 7.472,16.768c-0.104,19.064 -2.401,55.43 -2.401,85.838c0,2.424 1.965,4.389 4.389,4.389c2.425,0 4.39,-1.965 4.39,-4.389l0,-21.948c0,-4.841 3.938,-8.78 8.779,-8.78c4.841,0 8.779,3.939 8.779,8.78l0,21.948c0,2.424 1.965,4.389 4.39,4.389c2.424,0 4.389,-1.965 4.389,-4.389l0,-13.169c0,-4.841 3.939,-8.779 8.78,-8.779c4.84,0 8.779,3.938 8.779,8.779l0,34.191c0,19.657 -5.786,39.002 -16.821,55.555c-0.48,0.722 -0.738,1.569 -0.738,2.435l0,15.803l-70.233,0l0,-15.803c0,-1.164 -0.463,-2.28 -1.286,-3.103c-0.929,-1.058 -11.9,-10.856 -21.314,-27.763c-5.372,-9.65 -9.382,-20.003 -11.918,-30.772c-2.229,-9.489 1.723,-19.499 9.835,-24.907Z" style="fill:#fff;fill-rule:nonzero;"/><path d="M366.662,130.946c3.164,-12.602 5.378,-24.407 -9.392,-30.221c-9.756,-3.841 -16.12,-0.622 -19.481,11.727c-10.77,39.569 -16.636,50.015 -21.394,66.085c-3.368,11.375 -5.633,26.568 -5.542,39.479l-0.001,0.2l-12.995,12.988c-1.715,1.714 -1.716,4.493 -0.002,6.208l55.855,55.885c1.714,1.715 4.493,1.716 6.208,0.002l13.353,-13.345c20.467,-4.35 40.57,-21.416 55.547,-36.384l51.68,-34.27c7.662,-6.102 11.527,-13.123 6.172,-21.318c-4.535,-6.941 -11.033,-9.103 -23.28,-2.635c-11.594,6.123 -22.74,14.09 -19.17,11.46c4.843,-3.569 46.14,-30.077 52.767,-37.209c5.791,-6.232 3.884,-15.182 -0.302,-20.508c-0.428,-0.544 -0.907,-1.054 -1.394,-1.57c-8.464,-8.973 -17.756,-3.267 -23.721,0.952c-7.326,5.182 -57.46,48.593 -4.641,0.986c12.178,-10.977 16.555,-20.956 7.793,-30.126c-8.341,-8.729 -20.661,-5.138 -30.821,4.362c-18.841,17.616 -43.013,43.554 -32.599,32.836l30.298,-33.546c6.861,-6.857 6.865,-17.969 0.007,-24.831c-6.844,-6.847 -17.984,-6.85 -24.831,-0.007l-57.209,69.291c3.296,-14.041 4.248,-15.152 7.095,-26.491Zm-12.025,-21.341c10.549,4.14 5.004,13.508 4.049,18.158c-3.017,14.691 -14.163,41.848 -10.914,45.36c1.646,1.781 6.118,2.078 7.833,0.364c2.263,-2.262 65.504,-77.26 67.377,-79.131c3.424,-3.422 8.994,-3.421 12.415,0.003c3.428,3.43 3.427,8.988 -0.003,12.416l-54.957,66.719c-1.715,1.714 -1.716,4.493 -0.002,6.208c1.714,1.714 4.493,1.715 6.208,0.001c0,0 42.243,-42.064 63.04,-59.293c5.734,-4.75 11.828,-10.543 18.36,-4.408c5.455,5.123 -0.722,11.35 -6.578,17.139c-13.557,13.404 -40.903,37.486 -62.41,58.981c-1.715,1.714 -1.716,4.493 -0.002,6.208c1.714,1.715 4.493,1.716 6.208,0.002l71.405,-54.609c4.038,-2.887 8.987,-3.413 12.416,0.003c3.364,3.352 5.919,7.759 -1.136,13.403l-67.766,51.117l-2.507,2.505c-1.715,1.714 -1.715,4.493 -0.001,6.208c1.713,1.715 4.492,1.715 6.207,0.001l12.909,-7.604c9.589,-5.795 19.692,-12.46 30.068,-17.572c7.06,-3.478 10.827,-2.813 13.04,0.335c3.326,4.731 0.73,8.254 -3.313,11.111l-51.371,32.543c-13.904,13.896 -35.465,31.946 -54.975,35.843c-0.85,0.17 -1.631,0.587 -2.243,1.199l-11.178,11.171l-49.648,-49.676l11.177,-11.171c0.823,-0.823 1.285,-1.939 1.286,-3.103c0.091,-1.405 0.722,-21.86 6.026,-40.47c2.213,-7.762 14.33,-43.291 19.738,-63.601c1.807,-6.785 3.836,-8.482 9.242,-6.36Z" style="fill:#fff;fill-rule:nonzero;"/><path d="M20.35,261.619c9.942,6.154 20.675,10.895 31.901,14.09c11.233,3.198 22.854,4.818 34.542,4.818l0.197,0.002l12.789,12.789c1.688,1.688 4.424,1.688 6.112,0l55.001,-55.001c1.688,-1.688 1.688,-4.424 0,-6.112l-13.141,-13.141c-4.288,-20.149 -14.32,-38.765 -29.06,-53.505l-23.801,-23.801c-6.739,-6.739 -17.706,-6.739 -24.445,0c-2.515,2.515 -4.09,5.618 -4.728,8.872c-6.432,-3.088 -14.392,-1.974 -19.717,3.351c-2.515,2.515 -4.09,5.618 -4.728,8.872c-6.432,-3.088 -14.392,-1.974 -19.717,3.35c-2.181,2.181 -3.713,4.36 -4.454,7.769c-0.937,4.309 0.542,6.185 1.786,8.884l10.613,3.515c-6.753,-6.753 -17.692,-6.754 -24.446,0c-6.739,6.739 -6.739,17.706 0,24.445l3.661,3.661l-2.783,13.917c-2.586,12.929 3.207,26.282 14.418,33.225Zm-5.943,-31.531l1.652,-8.267l20.774,20.773c1.688,1.688 4.424,1.688 6.111,0c1.688,-1.687 1.688,-4.423 0,-6.111c-2.227,-2.227 -29.935,-29.936 -31.778,-31.779c-3.37,-3.369 -3.37,-8.853 0,-12.222c3.375,-3.376 8.847,-3.376 12.222,0l19.556,19.556c1.688,1.688 4.424,1.688 6.112,0c1.687,-1.688 1.687,-4.424 0,-6.111l-21.39,-21.39c-3.375,-3.375 -3.375,-8.847 0,-12.222c3.37,-3.37 8.853,-3.37 12.223,0l21.389,21.389c1.688,1.688 4.424,1.688 6.112,0c1.687,-1.688 1.687,-4.423 0,-6.111l-15.279,-15.278c-3.369,-3.37 -3.369,-8.853 0,-12.223c3.37,-3.37 8.853,-3.37 12.223,0l15.278,15.278c1.688,1.688 4.424,1.688 6.111,0c1.688,-1.688 1.688,-4.423 0,-6.111l-9.166,-9.167c-3.37,-3.37 -3.37,-8.853 0,-12.223c3.369,-3.369 8.853,-3.369 12.222,0l23.801,23.801c13.683,13.684 23.122,31.177 26.963,50.382c0.169,0.837 0.579,1.606 1.182,2.209l11,11l-48.89,48.89l-11,-11c-0.811,-0.811 -1.91,-1.265 -3.056,-1.265c-1.383,-0.09 -15.84,0.727 -34.162,-4.489c-10.458,-2.979 -20.456,-7.394 -29.718,-13.124c-8.157,-5.054 -12.374,-14.774 -10.492,-24.185Z" style="fill:#fff;fill-rule:nonzero;"/></g></svg>