<?xml version="1.0" encoding="UTF-8" standalone="no"?><!DOCTYPE svg PUBLIC "-//W3C//DTD SVG 1.1//EN" "http://www.w3.org/Graphics/SVG/1.1/DTD/svg11.dtd"><svg width="100%" height="100%" viewBox="0 0 1056 216" version="1.1" xmlns="http://www.w3.org/2000/svg" xmlnsXlink="http://www.w3.org/1999/xlink" xmlSpace="preserve" xmlnsSerif="http://www.serif.com/" style="fill-rule:evenodd;clip-rule:evenodd;stroke-linejoin:round;stroke-miterlimit:1.41421;"><g><g><path d="M359.748,131.434c2.721,11.56 7.025,22.675 12.793,33.033c5.772,10.366 12.954,19.877 21.349,28.272l0.141,0.142l0,18.373c0,2.425 1.965,4.39 4.39,4.39l79.012,0c2.425,0 4.39,-1.965 4.39,-4.39l0,-18.878c11.392,-17.552 17.558,-38.13 17.558,-59.304l0,-34.191c0,-9.681 -7.877,-17.559 -17.558,-17.559c-3.613,0 -6.974,1.098 -9.769,2.977c-2.402,-6.838 -8.919,-11.756 -16.569,-11.756c-3.613,0 -5.665,0.96 -8.46,2.839c-0.045,-4.522 0.53,-20.789 1.633,-48.569c0.651,-16.382 -3.119,-26.523 -15.799,-26.808c-12.07,-0.271 -18.239,10.981 -18.702,24.883c-0.859,25.779 0.399,61.212 0.18,46.269l-2.309,-45.143c0,-9.7 -7.856,-17.559 -17.558,-17.559c-9.681,0 -17.558,7.877 -17.558,17.559l6.157,63.508l-9.813,7.69c-11.144,7.43 -16.574,21.182 -13.508,34.222Zm18.379,-26.917l5.659,-4.751l1.466,29.842c0,2.424 1.965,4.389 4.389,4.389c2.425,0 4.39,-1.965 4.39,-4.389c0,-3.2 -8.34,-100.947 -8.34,-103.594c0,-4.841 3.938,-8.78 8.779,-8.78c4.849,0 8.779,3.93 8.779,8.78l8.34,86.036c0,2.424 1.965,4.389 4.39,4.389c2.425,0 4.39,-1.965 4.39,-4.389c0,0 0.219,-59.374 2.736,-86.263c0.694,-7.414 0.794,-16.06 9.751,-16.343c7.479,-0.237 7.517,8.534 7.472,16.768c-0.103,19.064 -2.401,55.43 -2.401,85.838c0,2.424 1.965,4.389 4.39,4.389c2.424,0 4.389,-1.965 4.389,-4.389l0,-21.948c0,-4.841 3.939,-8.78 8.779,-8.78c4.841,0 8.779,3.939 8.779,8.78l0,21.948c0,2.424 1.966,4.389 4.39,4.389c2.425,0 4.39,-1.965 4.39,-4.389l0,-13.169c0,-4.841 3.938,-8.779 8.779,-8.779c4.84,0 8.779,3.938 8.779,8.779l0,34.191c0,19.657 -5.785,39.002 -16.821,55.555c-0.48,0.722 -0.737,1.569 -0.737,2.435l0,15.803l-70.234,0l0,-15.803c0,-1.164 -0.463,-2.28 -1.286,-3.103c-0.929,-1.058 -11.9,-10.856 -21.313,-27.763c-5.372,-9.65 -9.383,-20.003 -11.919,-30.772c-2.229,-9.489 1.723,-19.499 9.835,-24.907Z" style="fill:#fff;fill-rule:nonzero;"/><path d="M531.739,131.434c2.721,11.56 7.025,22.675 12.793,33.033c5.771,10.366 12.954,19.877 21.349,28.272l0.141,0.142l0,18.373c0,2.425 1.965,4.39 4.39,4.39l79.012,0c2.425,0 4.39,-1.965 4.39,-4.39l0,-18.878c11.392,-17.552 17.558,-38.13 17.558,-59.304l0,-34.191c0,-9.681 -7.899,-16.913 -17.558,-17.559c-6.192,-0.413 -5.312,3.043 -5.059,-3.209c0.751,-18.543 7.747,-48.594 7.388,-58.323c-0.314,-8.501 -7.993,-13.479 -14.719,-14.283c-0.688,-0.082 -1.387,-0.104 -2.096,-0.125c-12.33,-0.356 -14.863,10.25 -16.095,17.451c-1.514,8.845 -6.249,74.993 -2.584,3.98c0.845,-16.373 -3.119,-26.523 -15.799,-26.808c-12.07,-0.271 -18.239,10.981 -18.702,24.883c-0.859,25.779 0.399,61.212 0.18,46.269l-2.309,-45.143c0,-9.7 -7.856,-17.559 -17.558,-17.559c-9.681,0 -17.558,7.877 -17.558,17.559l6.157,63.508l-9.813,7.69c-11.144,7.43 -16.574,21.182 -13.508,34.222Zm18.379,-26.917l5.658,-4.751l1.467,29.842c0,2.424 1.965,4.389 4.389,4.389c2.425,0 4.39,-1.965 4.39,-4.389c0,-3.2 -8.34,-100.947 -8.34,-103.594c0,-4.841 3.938,-8.78 8.779,-8.78c4.849,0 8.779,3.93 8.779,8.78l8.34,86.036c0,2.424 1.965,4.389 4.39,4.389c2.424,0 4.389,-1.965 4.389,-4.389c0,0 0.22,-59.374 2.737,-86.263c0.694,-7.414 0.794,-16.06 9.751,-16.343c7.479,-0.237 7.517,8.534 7.472,16.768c-0.103,19.064 -2.401,55.43 -2.401,85.838c0,2.424 1.965,4.389 4.389,4.389c2.425,0 4.39,-1.965 4.39,-4.389l11.852,-89.109c0.813,-4.897 3.939,-8.769 8.779,-8.779c4.749,-0.01 9.672,1.298 8.678,10.277l-11.751,84.067l0,3.544c0,2.424 1.965,4.389 4.39,4.389c2.425,0 4.39,-1.965 4.39,-4.389l0,-13.169c0,-4.841 3.938,-8.779 8.779,-8.779c4.84,0 8.779,3.938 8.779,8.779l0,34.191c0,19.657 -5.785,39.002 -16.821,55.555c-0.48,0.722 -0.737,1.569 -0.737,2.435l0,15.803l-70.234,0l0,-15.803c0,-1.164 -0.463,-2.28 -1.286,-3.103c-0.929,-1.058 -11.9,-10.856 -21.313,-27.763c-5.373,-9.65 -9.383,-20.003 -11.919,-30.772c-2.229,-9.489 1.723,-19.499 9.835,-24.907Z" style="fill:#fff;fill-rule:nonzero;"/><path d="M706.217,131.434c2.721,11.56 7.025,22.675 12.793,33.033c5.772,10.366 12.955,19.877 21.35,28.272l0.14,0.142l0,18.373c0,2.425 1.965,4.39 4.39,4.39l79.013,0c2.424,0 4.389,-1.965 4.389,-4.39l0,-18.878c11.393,-17.552 13.533,-43.834 13.533,-65.009l12.294,-60.78c1.101,-9.732 -1.133,-17.428 -10.715,-19.434c-8.115,-1.699 -14.238,1.368 -18.321,14.602c-3.865,12.529 -6.109,26.045 -5.446,21.661c0.9,-5.949 11.344,-53.897 10.984,-63.626c-0.314,-8.501 -7.992,-13.479 -14.719,-14.283c-0.687,-0.082 -1.387,-0.104 -2.095,-0.125c-12.33,-0.356 -14.863,10.25 -16.096,17.451c-1.514,8.845 -6.249,74.993 -2.584,3.98c0.845,-16.373 -3.119,-26.523 -15.799,-26.808c-12.069,-0.271 -18.239,10.981 -18.702,24.883c-0.859,25.779 0.4,61.212 0.181,46.269l-2.309,-45.143c0,-9.7 -7.857,-17.559 -17.559,-17.559c-9.681,0 -17.558,7.877 -17.558,17.559l6.158,63.508l-9.814,7.69c-11.143,7.43 -16.574,21.182 -13.508,34.222Zm18.38,-26.917l5.658,-4.751l1.466,29.842c0,2.424 1.965,4.389 4.39,4.389c2.424,0 4.389,-1.965 4.389,-4.389c0,-3.2 -8.34,-100.947 -8.34,-103.594c0,-4.841 3.939,-8.78 8.779,-8.78c4.849,0 8.78,3.93 8.78,8.78l8.34,86.036c0,2.424 1.965,4.389 4.389,4.389c2.425,0 4.39,-1.965 4.39,-4.389c0,0 0.22,-59.374 2.736,-86.263c0.694,-7.414 0.794,-16.06 9.751,-16.343c7.479,-0.237 7.517,8.534 7.472,16.768c-0.103,19.064 -2.401,55.43 -2.401,85.838c0,2.424 1.965,4.389 4.39,4.389c2.424,0 4.389,-1.965 4.389,-4.389l11.852,-89.109c0.813,-4.897 3.939,-8.769 8.78,-8.779c4.748,-0.01 9.672,1.298 8.677,10.277l-11.75,84.067l0,3.544c0,2.424 1.965,4.389 4.389,4.389c2.425,0 4.39,-1.965 4.39,-4.389l3.747,-14.507c2.68,-10.878 5.107,-22.736 8.827,-33.688c2.531,-7.452 5.664,-9.647 9.455,-8.987c5.697,0.992 6.354,5.319 5.516,10.198l-13.297,59.34c0,19.657 -2.475,47.668 -13.511,64.221c-0.48,0.722 -0.737,1.569 -0.737,2.435l0,15.803l-70.233,0l0,-15.803c0,-1.164 -0.463,-2.28 -1.286,-3.103c-0.93,-1.058 -11.9,-10.856 -21.314,-27.763c-5.372,-9.65 -9.383,-20.003 -11.919,-30.772c-2.229,-9.489 1.724,-19.499 9.836,-24.907Z" style="fill:#fff;fill-rule:nonzero;"/><path d="M919.023,91.715c-6.677,-11.147 -13.462,-21.058 -28.015,-14.721c-9.613,4.186 -11.835,10.962 -5.477,22.069c20.374,35.59 23.616,47.123 31.618,61.848c5.665,10.424 14.81,22.766 24.006,31.828l0.141,0.142l0,18.373c0,2.425 1.965,4.39 4.389,4.39l79.013,0c2.424,0 4.39,-1.965 4.39,-4.39l0,-18.878c11.392,-17.552 13.532,-43.834 13.532,-65.009l12.295,-60.78c1.1,-9.732 -1.134,-17.428 -10.716,-19.434c-8.115,-1.699 -14.237,1.368 -18.32,14.602c-3.866,12.529 -6.109,26.045 -5.446,21.661c0.899,-5.949 11.343,-53.897 10.984,-63.626c-0.315,-8.501 -7.993,-13.479 -14.72,-14.283c-0.687,-0.082 -1.386,-0.104 -2.095,-0.125c-12.33,-0.356 -14.863,10.25 -16.096,17.451c-1.513,8.845 -6.249,74.993 -2.583,3.98c0.845,-16.373 -3.12,-26.523 -15.799,-26.808c-12.07,-0.271 -18.239,10.981 -18.703,24.883c-0.858,25.779 0.4,61.212 0.181,46.269l-2.309,-45.143c0,-9.7 -7.857,-17.559 -17.558,-17.559c-9.681,0 -17.559,7.877 -17.559,17.559l8.568,89.446c-7.601,-12.257 -7.714,-13.716 -13.721,-23.745Zm-23.596,-6.581c10.386,-4.535 13.091,6.009 15.705,9.972c8.259,12.519 19.588,39.6 24.369,39.786c2.423,0.094 5.795,-2.86 5.795,-5.284c0,-3.2 -8.341,-100.947 -8.341,-103.594c0,-4.841 3.939,-8.78 8.78,-8.78c4.849,0 8.779,3.93 8.779,8.78l8.34,86.036c0,2.424 1.965,4.389 4.39,4.389c2.424,0 4.389,-1.965 4.389,-4.389c0,0 0.11,-59.615 2.626,-86.504c0.694,-7.414 0.905,-15.819 9.862,-16.102c7.479,-0.237 7.516,8.534 7.472,16.768c-0.104,19.064 -2.401,55.43 -2.401,85.838c0,2.424 1.965,4.389 4.389,4.389c2.425,0 4.39,-1.965 4.39,-4.389l11.852,-89.109c0.813,-4.897 3.938,-8.769 8.779,-8.779c4.749,-0.01 9.672,1.298 8.677,10.277l-11.75,84.067l0,3.544c0,2.424 1.965,4.389 4.39,4.389c2.424,0 4.389,-1.965 4.389,-4.389l3.747,-14.507c2.68,-10.878 5.107,-22.736 8.827,-33.688c2.531,-7.452 5.664,-9.647 9.455,-8.987c5.698,0.992 6.354,5.319 5.516,10.198l-13.297,59.34c0,19.657 -2.475,47.668 -13.51,64.221c-0.48,0.722 -0.738,1.569 -0.738,2.435l0,15.803l-70.233,0l0,-15.803c0,-1.164 -0.463,-2.28 -1.286,-3.103c-0.93,-1.058 -14.951,-15.964 -24.365,-32.871c-3.926,-7.053 -20.489,-40.739 -31.031,-58.921c-3.522,-6.074 -3.288,-8.71 2.034,-11.033Z" style="fill:#fff;fill-rule:nonzero;"/></g><path d="M182.873,127.998c2.833,12.032 7.312,23.6 13.316,34.381c6.007,10.788 13.483,20.688 22.22,29.425l0.147,0.149l0,19.122c0,2.524 2.045,4.569 4.568,4.569l82.238,0c2.523,0 4.568,-2.045 4.568,-4.569l0,-19.649c11.858,-18.268 18.275,-39.685 18.275,-61.724l0,-35.586c0,-10.076 -8.199,-18.275 -18.275,-18.275c-3.76,0 -7.258,1.142 -10.167,3.098c-2.5,-7.117 -9.284,-12.236 -17.245,-12.236c-3.76,0 -7.258,1.143 -10.167,3.099c-2.501,-7.118 -9.284,-12.236 -17.245,-12.236c-3.261,0 -6.39,0.853 -9.138,2.447l0,-41.738c0,-10.096 -8.177,-18.275 -18.275,-18.275c-10.076,0 -18.275,8.199 -18.275,18.275l0,65.781l-12.485,8.323c-11.599,7.733 -17.251,22.046 -14.06,35.619Zm19.13,-28.016l7.415,-4.945l0,31.06c0,2.523 2.045,4.569 4.569,4.569c2.524,0 4.569,-2.046 4.569,-4.569c0,-3.33 0,-105.067 0,-107.822c0,-5.038 4.099,-9.138 9.137,-9.138c5.047,0 9.138,4.091 9.138,9.138l0,89.547c0,2.523 2.045,4.569 4.568,4.569c2.524,0 4.569,-2.046 4.569,-4.569l0,-31.981c0,-5.047 4.091,-9.138 9.138,-9.138c5.038,0 9.137,4.1 9.137,9.138l0,31.981c0,2.523 2.045,4.569 4.569,4.569c2.523,0 4.568,-2.046 4.568,-4.569l0,-22.844c0,-5.038 4.1,-9.137 9.138,-9.137c5.038,0 9.137,4.099 9.137,9.137l0,22.844c0,2.523 2.046,4.569 4.569,4.569c2.524,0 4.569,-2.046 4.569,-4.569l0,-13.706c0,-5.038 4.099,-9.138 9.137,-9.138c5.038,0 9.138,4.1 9.138,9.138l0,35.586c0,20.459 -6.022,40.594 -17.508,57.823c-0.499,0.751 -0.767,1.633 -0.767,2.534l0,16.447l-73.1,0l0,-16.447c0,-1.212 -0.482,-2.374 -1.338,-3.23c-0.968,-1.101 -12.386,-11.299 -22.184,-28.896c-5.591,-10.044 -9.765,-20.819 -12.405,-32.027c-2.32,-9.876 1.794,-20.295 10.237,-25.924Z" style="fill:#fff;fill-rule:nonzero;"/><path d="M0.882,127.967c2.833,12.036 7.314,23.608 13.32,34.393c6.009,10.792 13.488,20.695 22.228,29.436l0.147,0.148l0,19.13c0,2.524 2.046,4.57 4.57,4.57l82.266,0c2.524,0 4.57,-2.046 4.57,-4.57l0,-19.656c11.862,-18.275 18.282,-39.7 18.282,-61.746l0,-35.599c0,-10.08 -8.202,-18.281 -18.282,-18.281c-3.761,0 -7.26,1.142 -10.17,3.099c-2.502,-7.12 -9.287,-12.24 -17.252,-12.24c-3.761,0 -7.26,1.143 -10.17,3.099c-2.502,-7.119 -9.287,-12.24 -17.252,-12.24c-3.261,0 -6.037,0.485 -9.14,2.479c-3.924,2.522 -4.22,5.031 -5.309,7.98l5.309,10.565c0,-10.099 -8.18,-18.281 -18.282,-18.281c-10.079,0 -18.281,8.201 -18.281,18.281l0,5.475l-12.49,8.327c-11.602,7.736 -17.256,22.054 -14.064,35.631Zm19.136,-28.026l7.418,-4.947l0,31.071c0,2.525 2.046,4.571 4.57,4.571c2.525,0 4.571,-2.046 4.571,-4.571c0,-3.331 0,-44.775 0,-47.531c0,-5.04 4.101,-9.141 9.14,-9.141c5.049,0 9.141,4.092 9.141,9.141l0,29.25c0,2.524 2.046,4.57 4.57,4.57c2.525,0 4.571,-2.046 4.571,-4.57l0,-31.992c0,-5.049 4.092,-9.141 9.14,-9.141c5.04,0 9.141,4.101 9.141,9.141l0,31.992c0,2.524 2.046,4.57 4.57,4.57c2.525,0 4.571,-2.046 4.571,-4.57l0,-22.852c0,-5.039 4.101,-9.14 9.14,-9.14c5.04,0 9.141,4.101 9.141,9.14l0,22.852c0,2.524 2.046,4.57 4.57,4.57c2.525,0 4.571,-2.046 4.571,-4.57l0,-13.711c0,-5.04 4.101,-9.141 9.14,-9.141c5.04,0 9.141,4.101 9.141,9.141l0,35.599c0,20.466 -6.023,40.608 -17.514,57.843c-0.499,0.752 -0.767,1.633 -0.767,2.535l0,16.453l-73.126,0l0,-16.453c0,-1.212 -0.482,-2.374 -1.339,-3.231c-0.967,-1.102 -12.389,-11.303 -22.191,-28.906c-5.593,-10.048 -9.769,-20.827 -12.409,-32.039c-2.321,-9.879 1.794,-20.302 10.24,-25.933Z" style="fill:#fff;fill-rule:nonzero;"/></g></svg>