<?xml version="1.0" encoding="UTF-8" standalone="no"?><!DOCTYPE svg PUBLIC "-//W3C//DTD SVG 1.1//EN" "http://www.w3.org/Graphics/SVG/1.1/DTD/svg11.dtd"><svg width="100%" height="100%" viewBox="0 0 142 217" version="1.1" xmlns="http://www.w3.org/2000/svg" xmlnsXlink="http://www.w3.org/1999/xlink" xmlSpace="preserve" xmlnsSerif="http://www.serif.com/" style="fill-rule:evenodd;clip-rule:evenodd;stroke-linejoin:round;stroke-miterlimit:1.41421;"><path d="M1.347,131.934c2.721,11.56 7.025,22.675 12.793,33.033c5.772,10.366 12.955,19.877 21.35,28.272l0.14,0.142l0,18.373c0,2.425 1.965,4.39 4.39,4.39l79.012,0c2.425,0 4.39,-1.965 4.39,-4.39l0,-18.878c11.392,-17.552 17.558,-38.13 17.558,-59.304l0,-34.191c0,-9.681 -7.877,-17.559 -17.558,-17.559c-3.613,0 -6.974,1.098 -9.768,2.977c-2.403,-6.838 -8.92,-11.756 -16.569,-11.756c-3.613,0 -5.666,0.96 -8.461,2.839c-0.045,-4.522 0.53,-20.789 1.633,-48.569c0.651,-16.382 -3.119,-26.523 -15.799,-26.808c-12.07,-0.271 -18.239,10.981 -18.702,24.883c-0.859,25.779 0.399,61.212 0.181,46.269l-2.309,-45.143c0,-9.7 -7.857,-17.559 -17.559,-17.559c-9.681,0 -17.558,7.877 -17.558,17.559l6.158,63.508l-9.814,7.69c-11.144,7.43 -16.574,21.182 -13.508,34.222Zm18.38,-26.917l5.658,-4.751l1.466,29.842c0,2.424 1.965,4.389 4.39,4.389c2.424,0 4.389,-1.965 4.389,-4.389c0,-3.2 -8.34,-100.947 -8.34,-103.594c0,-4.841 3.939,-8.78 8.779,-8.78c4.849,0 8.779,3.93 8.779,8.78l8.341,86.036c0,2.424 1.965,4.389 4.389,4.389c2.425,0 4.39,-1.965 4.39,-4.389c0,0 0.22,-59.374 2.736,-86.263c0.694,-7.414 0.794,-16.06 9.751,-16.343c7.479,-0.237 7.517,8.534 7.472,16.768c-0.103,19.064 -2.401,55.43 -2.401,85.838c0,2.424 1.965,4.389 4.39,4.389c2.424,0 4.389,-1.965 4.389,-4.389l0,-21.948c0,-4.841 3.939,-8.78 8.78,-8.78c4.84,0 8.779,3.939 8.779,8.78l0,21.948c0,2.424 1.965,4.389 4.389,4.389c2.425,0 4.39,-1.965 4.39,-4.389l0,-13.169c0,-4.841 3.939,-8.779 8.779,-8.779c4.841,0 8.779,3.938 8.779,8.779l0,34.191c0,19.657 -5.785,39.002 -16.821,55.555c-0.48,0.722 -0.737,1.569 -0.737,2.435l0,15.803l-70.234,0l0,-15.803c0,-1.164 -0.463,-2.28 -1.286,-3.103c-0.929,-1.058 -11.899,-10.856 -21.313,-27.763c-5.372,-9.65 -9.383,-20.003 -11.919,-30.772c-2.229,-9.489 1.723,-19.499 9.836,-24.907Z" style="fill:#32d7ee;fill-rule:nonzero;stroke:#fff;stroke-width:1px;"/></svg>