<?xml version="1.0" encoding="UTF-8" standalone="no"?><!DOCTYPE svg PUBLIC "-//W3C//DTD SVG 1.1//EN" "http://www.w3.org/Graphics/SVG/1.1/DTD/svg11.dtd"><svg width="100%" height="100%" viewBox="0 0 147 159" version="1.1" xmlns="http://www.w3.org/2000/svg" xmlnsXlink="http://www.w3.org/1999/xlink" xmlSpace="preserve" xmlnsSerif="http://www.serif.com/" style="fill-rule:evenodd;clip-rule:evenodd;stroke-linejoin:round;stroke-miterlimit:1.41421;"><path d="M0.882,70.456c2.833,12.037 7.314,23.609 13.32,34.394c6.009,10.792 13.488,20.695 22.228,29.436l0.147,0.148l0,19.129c0,2.525 2.046,4.571 4.57,4.571l82.266,0c2.524,0 4.57,-2.046 4.57,-4.571l0,-19.656c11.862,-18.274 18.282,-39.699 18.282,-61.746l0,-35.598c0,-10.08 -8.202,-18.282 -18.282,-18.282c-3.761,0 -7.26,1.143 -10.17,3.1c-2.502,-7.12 -9.287,-12.24 -17.252,-12.24c-3.761,0 -7.26,1.142 -10.17,3.099c-2.502,-7.12 -9.287,-12.24 -17.252,-12.24c-3.261,0 -6.037,0.484 -9.14,2.479c-3.924,2.522 -4.22,5.031 -5.309,7.98l5.309,10.565c0,-10.1 -8.18,-18.282 -18.282,-18.282c-10.079,0 -18.281,8.202 -18.281,18.282l0,5.475l-12.49,8.327c-11.602,7.735 -17.256,22.053 -14.064,35.63Zm19.136,-28.025l7.418,-4.947l0,31.071c0,2.524 2.046,4.57 4.57,4.57c2.525,0 4.571,-2.046 4.571,-4.57c0,-3.331 0,-44.775 0,-47.531c0,-5.04 4.101,-9.141 9.14,-9.141c5.049,0 9.141,4.092 9.141,9.141l0,29.25c0,2.524 2.046,4.57 4.57,4.57c2.525,0 4.571,-2.046 4.571,-4.57l0,-31.993c0,-5.048 4.092,-9.14 9.14,-9.14c5.04,0 9.141,4.1 9.141,9.14l0,31.993c0,2.524 2.046,4.57 4.57,4.57c2.525,0 4.571,-2.046 4.571,-4.57l0,-22.852c0,-5.04 4.101,-9.141 9.14,-9.141c5.04,0 9.141,4.101 9.141,9.141l0,22.852c0,2.524 2.046,4.57 4.57,4.57c2.525,0 4.571,-2.046 4.571,-4.57l0,-13.711c0,-5.04 4.101,-9.141 9.14,-9.141c5.04,0 9.141,4.101 9.141,9.141l0,35.598c0,20.467 -6.023,40.608 -17.514,57.844c-0.499,0.751 -0.767,1.633 -0.767,2.535l0,16.453l-73.126,0l0,-16.453c0,-1.213 -0.482,-2.375 -1.339,-3.232c-0.967,-1.101 -12.389,-11.302 -22.191,-28.905c-5.593,-10.048 -9.769,-20.827 -12.409,-32.039c-2.321,-9.88 1.794,-20.302 10.24,-25.933Z" style="fill:#32d7ee;fill-rule:nonzero;"/></svg>