<?xml version="1.0" encoding="UTF-8" standalone="no"?><!DOCTYPE svg PUBLIC "-//W3C//DTD SVG 1.1//EN" "http://www.w3.org/Graphics/SVG/1.1/DTD/svg11.dtd"><svg width="100%" height="100%" viewBox="0 0 321 492" version="1.1" xmlns="http://www.w3.org/2000/svg" xmlns:xlink="http://www.w3.org/1999/xlink" xml:space="preserve" xmlns:serif="http://www.serif.com/" style="fill-rule:evenodd;clip-rule:evenodd;stroke-linejoin:round;stroke-miterlimit:1.41421;"><path d="M1.929,299.422c6.199,26.336 16.004,51.656 29.145,75.254c13.148,23.613 29.511,45.281 48.636,64.406l0.321,0.324l0,41.856c0,5.523 4.476,10 10,10l180,0c5.523,0 10,-4.477 10,-10l0,-43.008c25.953,-39.984 40,-86.863 40,-135.102l0,-77.89c0,-22.055 -17.946,-40 -40,-40c-8.231,0 -15.887,2.5 -22.254,6.781c-5.473,-15.578 -20.32,-26.781 -37.746,-26.781c-8.231,0 -12.907,2.187 -19.275,6.468c-0.101,-10.302 1.208,-47.36 3.721,-110.647c1.483,-37.321 -7.106,-60.423 -35.992,-61.072c-27.496,-0.618 -41.55,25.016 -42.605,56.686c-1.957,58.729 0.91,139.449 0.411,105.407l-5.26,-102.842c0,-22.098 -17.899,-40 -40,-40c-22.055,0 -40,17.945 -40,40l14.028,144.68l-22.356,17.519c-25.387,16.926 -37.758,48.254 -30.774,77.961Zm41.871,-61.32l12.89,-10.825l3.341,67.985c0,5.523 4.476,10 10,10c5.523,0 10,-4.477 10,-10c0,-7.289 -19,-229.969 -19,-236c0,-11.028 8.972,-20 20,-20c11.047,0 20,8.953 20,20l19,196c0,5.523 4.476,10 10,10c5.523,0 10,-4.477 10,-10c0,0 0.501,-135.259 6.233,-196.516c1.581,-16.889 1.809,-36.586 22.215,-37.232c17.038,-0.539 17.124,19.442 17.022,38.2c-0.236,43.431 -5.47,126.275 -5.47,195.548c0,5.523 4.476,10 10,10c5.523,0 10,-4.477 10,-10l0,-50c0,-11.028 8.972,-20 20,-20c11.027,0 20,8.972 20,20l0,50c0,5.523 4.476,10 10,10c5.523,0 10,-4.477 10,-10l0,-30c0,-11.028 8.972,-20 20,-20c11.027,0 20,8.972 20,20l0,77.89c0,44.782 -13.18,88.852 -38.321,126.563c-1.093,1.644 -1.679,3.574 -1.679,5.547l0,36l-160,0l0,-36c0,-2.653 -1.055,-5.196 -2.93,-7.071c-2.117,-2.41 -27.109,-24.73 -48.555,-63.246c-12.238,-21.984 -21.375,-45.57 -27.152,-70.101c-5.078,-21.617 3.926,-44.422 22.406,-56.742Z" style="fill-rule:nonzero;"/></svg>